HIERARCHY
ROOT hips_JNT
{
	OFFSET 0.000000 0.000000 0.000000
	CHANNELS 6 Xposition Yposition Zposition Zrotation Xrotation Yrotation
	JOINT spine_JNT
	{
		OFFSET -0.000000 0.092917 0.002765
		CHANNELS 3 Zrotation Xrotation Yrotation
		JOINT spine1_JNT
		{
			OFFSET -0.000000 0.145634 -0.010035
			CHANNELS 3 Zrotation Xrotation Yrotation
			JOINT spine2_JNT
			{
				OFFSET 0.000030 0.100556 -0.015221
				CHANNELS 3 Zrotation Xrotation Yrotation
				JOINT neck_JNT
				{
					OFFSET 0.000034 0.116351 -0.018006
					CHANNELS 3 Zrotation Xrotation Yrotation
					JOINT head_JNT
					{
						OFFSET 0.000018 0.071400 0.000505
						CHANNELS 3 Zrotation Xrotation Yrotation
						End Site
						{
							OFFSET 0.000000 0.000000 0.000000
						}
					}
				}
				JOINT l_shoulder_JNT
				{
					OFFSET 0.028694 0.092266 0.005608
					CHANNELS 3 Zrotation Xrotation Yrotation
					JOINT l_arm_JNT
					{
						OFFSET 0.103648 -0.009178 -0.059106
						CHANNELS 3 Zrotation Xrotation Yrotation
						JOINT l_forearm_JNT
						{
							OFFSET 0.230014 -0.000059 0.000053
							CHANNELS 3 Zrotation Xrotation Yrotation
							JOINT l_hand_JNT
							{
								OFFSET 0.204504 -0.000052 0.000048
								CHANNELS 3 Zrotation Xrotation Yrotation
								JOINT l_handThumb1_JNT
								{
									OFFSET 0.036093 -0.016472 0.020583
									CHANNELS 3 Zrotation Xrotation Yrotation
									JOINT l_handThumb2_JNT
									{
										OFFSET 0.020881 -0.009279 0.018399
										CHANNELS 3 Zrotation Xrotation Yrotation
										JOINT l_handThumb3_JNT
										{
											OFFSET 0.023257 -0.016090 0.012192
											CHANNELS 3 Zrotation Xrotation Yrotation
											End Site
											{
												OFFSET 0.000000 0.000000 0.000000
											}
										}
									}
								}
								JOINT l_handIndex_01_JNT
								{
									OFFSET 0.091414 -0.011873 0.016914
									CHANNELS 3 Zrotation Xrotation Yrotation
									JOINT l_handIndex_02_JNT
									{
										OFFSET 0.029266 -0.014105 -0.001045
										CHANNELS 3 Zrotation Xrotation Yrotation
										JOINT l_handIndex_03_JNT
										{
											OFFSET 0.020364 -0.015596 -0.002024
											CHANNELS 3 Zrotation Xrotation Yrotation
											End Site
											{
												OFFSET 0.000000 0.000000 0.000000
											}
										}
									}
								}
								JOINT l_handMiddle1_JNT
								{
									OFFSET 0.092824 -0.010137 -0.003537
									CHANNELS 3 Zrotation Xrotation Yrotation
									JOINT l_handMiddle2_JNT
									{
										OFFSET 0.032178 -0.013845 -0.003243
										CHANNELS 3 Zrotation Xrotation Yrotation
										JOINT l_handMiddle3_JNT
										{
											OFFSET 0.022468 -0.016045 -0.001722
											CHANNELS 3 Zrotation Xrotation Yrotation
											End Site
											{
												OFFSET 0.000000 0.000000 0.000000
											}
										}
									}
								}
								JOINT l_handRing1_JNT
								{
									OFFSET 0.087096 -0.014707 -0.020554
									CHANNELS 3 Zrotation Xrotation Yrotation
									JOINT l_handRing2_JNT
									{
										OFFSET 0.030283 -0.013494 -0.005373
										CHANNELS 3 Zrotation Xrotation Yrotation
										JOINT l_handRing3_JNT
										{
											OFFSET 0.020830 -0.015866 -0.003008
											CHANNELS 3 Zrotation Xrotation Yrotation
											End Site
											{
												OFFSET 0.000000 0.000000 0.000000
											}
										}
									}
								}
								JOINT l_handPinky1_JNT
								{
									OFFSET 0.076808 -0.019614 -0.033833
									CHANNELS 3 Zrotation Xrotation Yrotation
									JOINT l_handPinky2_JNT
									{
										OFFSET 0.024035 -0.009490 -0.008074
										CHANNELS 3 Zrotation Xrotation Yrotation
										JOINT l_handPinky3_JNT
										{
											OFFSET 0.018491 -0.011870 -0.005429
											CHANNELS 3 Zrotation Xrotation Yrotation
											End Site
											{
												OFFSET 0.000000 0.000000 0.000000
											}
										}
									}
								}
							}
						}
					}
				}
				JOINT r_shoulder_JNT
				{
					OFFSET -0.028650 0.092281 0.005594
					CHANNELS 3 Zrotation Xrotation Yrotation
					JOINT r_arm_JNT
					{
						OFFSET -0.103624 -0.009124 -0.059154
						CHANNELS 3 Zrotation Xrotation Yrotation
						JOINT r_forearm_JNT
						{
							OFFSET -0.230014 0.000059 -0.000053
							CHANNELS 3 Zrotation Xrotation Yrotation
							JOINT r_hand_JNT
							{
								OFFSET -0.204506 0.000052 -0.000047
								CHANNELS 3 Zrotation Xrotation Yrotation
								JOINT r_handThumb1_JNT
								{
									OFFSET -0.036112 -0.016455 0.020567
									CHANNELS 3 Zrotation Xrotation Yrotation
									JOINT r_handThumb2_JNT
									{
										OFFSET -0.020893 -0.009268 0.018390
										CHANNELS 3 Zrotation Xrotation Yrotation
										JOINT r_handThumb3_JNT
										{
											OFFSET -0.023271 -0.016077 0.012181
											CHANNELS 3 Zrotation Xrotation Yrotation
											End Site
											{
												OFFSET 0.000000 0.000000 0.000000
											}
										}
									}
								}
								JOINT r_handIndex1_JNT
								{
									OFFSET -0.091567 -0.012318 0.017025
									CHANNELS 3 Zrotation Xrotation Yrotation
									JOINT r_handIndex2_JNT
									{
										OFFSET -0.029267 -0.014105 -0.001045
										CHANNELS 3 Zrotation Xrotation Yrotation
										JOINT r_handIndex3_JNT
										{
											OFFSET -0.020364 -0.015595 -0.002024
											CHANNELS 3 Zrotation Xrotation Yrotation
											End Site
											{
												OFFSET 0.000000 0.000000 0.000000
											}
										}
									}
								}
								JOINT r_handMiddle1_JNT
								{
									OFFSET -0.092827 -0.010090 -0.003579
									CHANNELS 3 Zrotation Xrotation Yrotation
									JOINT r_handMiddle2_JNT
									{
										OFFSET -0.032184 -0.013830 -0.003261
										CHANNELS 3 Zrotation Xrotation Yrotation
										JOINT r_handMiddle3_JNT
										{
											OFFSET -0.022476 -0.016033 -0.001737
											CHANNELS 3 Zrotation Xrotation Yrotation
											End Site
											{
												OFFSET 0.000000 0.000000 0.000000
											}
										}
									}
								}
								JOINT r_handRing1_JNT
								{
									OFFSET -0.087241 -0.015151 -0.020443
									CHANNELS 3 Zrotation Xrotation Yrotation
									JOINT r_handRing2_JNT
									{
										OFFSET -0.030281 -0.013493 -0.005373
										CHANNELS 3 Zrotation Xrotation Yrotation
										JOINT r_handRing3_JNT
										{
											OFFSET -0.020830 -0.015867 -0.003008
											CHANNELS 3 Zrotation Xrotation Yrotation
											End Site
											{
												OFFSET 0.000000 0.000000 0.000000
											}
										}
									}
								}
								JOINT r_handPinky1_JNT
								{
									OFFSET -0.076948 -0.020056 -0.033719
									CHANNELS 3 Zrotation Xrotation Yrotation
									JOINT r_handPinky2_JNT
									{
										OFFSET -0.024035 -0.009491 -0.008074
										CHANNELS 3 Zrotation Xrotation Yrotation
										JOINT r_handPinky3_JNT
										{
											OFFSET -0.018491 -0.011867 -0.005430
											CHANNELS 3 Zrotation Xrotation Yrotation
											End Site
											{
												OFFSET 0.000000 0.000000 0.000000
											}
										}
									}
								}
							}
						}
					}
				}
			}
		}
	}
	JOINT l_upleg_JNT
	{
		OFFSET 0.068275 -0.000002 -0.000000
		CHANNELS 3 Zrotation Xrotation Yrotation
		JOINT l_leg_JNT
		{
			OFFSET 0.039513 -0.320175 -0.009642
			CHANNELS 3 Zrotation Xrotation Yrotation
			JOINT l_foot_JNT
			{
				OFFSET 0.021670 -0.300227 -0.047549
				CHANNELS 3 Zrotation Xrotation Yrotation
				JOINT l_toebase_JNT
				{
					OFFSET 0.006311 -0.102086 0.124553
					CHANNELS 3 Zrotation Xrotation Yrotation
					End Site
					{
						OFFSET 0.000000 0.000000 0.000000
					}
				}
			}
		}
	}
	JOINT r_upleg_JNT
	{
		OFFSET -0.068275 0.000000 0.000000
		CHANNELS 3 Zrotation Xrotation Yrotation
		JOINT r_leg_JNT
		{
			OFFSET -0.039514 -0.320177 -0.009642
			CHANNELS 3 Zrotation Xrotation Yrotation
			JOINT r_foot_JNT
			{
				OFFSET -0.021670 -0.300227 -0.047549
				CHANNELS 3 Zrotation Xrotation Yrotation
				JOINT r_toebase_JNT
				{
					OFFSET -0.006311 -0.102086 0.124551
					CHANNELS 3 Zrotation Xrotation Yrotation
					End Site
					{
						OFFSET 0.000000 0.000000 0.000000
					}
				}
			}
		}
	}
}
MOTION
Frames: 5
Frame Time: 0.033333
0.005116 0.668637 -0.001051 -1.932400 1.858610 5.369060 0.000000 0.000000 0.039565 0.233959 1.986280 -6.719160 0.000000 0.000000 0.000000 6.080520 4.390060 -4.739680 5.246220 -12.947500 0.039565 0.000000 0.000000 0.000000 -65.923401 18.057501 -0.193827 -3.350580 -7.127210 -93.982101 0.000005 -0.000000 0.000000 8.793980 30.000000 -14.576000 -0.000000 0.000000 0.000000 -15.881600 -0.218703 0.000000 -26.169100 7.540610 0.000000 -33.824100 9.493270 0.000000 -22.380301 6.518170 0.000000 -29.794800 5.677390 0.000000 -38.419601 7.091300 0.000000 -25.506100 4.923210 0.000000 -33.403400 -3.151550 0.000000 -42.984798 -3.901820 0.000000 -28.620399 -2.742600 0.000000 -37.337898 -6.922240 0.000000 -48.202301 -8.499260 0.000000 -31.944901 -6.043420 0.000000 0.000000 0.000000 0.000000 68.518402 27.065599 -0.539591 2.925260 -6.971360 89.154404 -0.000002 0.000007 0.000000 -8.793980 30.000000 14.576000 -0.000000 0.000000 0.000000 16.420401 0.233691 0.000000 27.072500 7.779250 0.000000 35.002602 9.778980 0.000000 23.149599 6.728470 0.000000 30.815500 5.852210 0.000000 39.742100 7.294560 0.000000 26.377899 5.078970 0.000000 34.540001 -3.245590 0.000000 44.449402 -4.007400 0.000000 29.593599 -2.827460 0.000000 38.622398 -7.122720 0.000000 49.869999 -8.716100 0.000000 33.040501 -6.226630 0.000000 11.331500 -27.954700 -18.703400 -5.815100 46.115299 4.836970 0.878242 9.640810 -3.763390 -0.000002 -0.000000 0.000000 -6.867430 -24.798401 -0.802102 4.950900 35.528198 -3.520730 5.339980 -12.569500 3.899470 -0.000000 -0.000003 0.000000
0.014508 0.664859 -0.000979 -1.438140 2.846780 3.305839 0.000001 -0.000000 0.000000 0.182147 1.991700 -5.226290 -0.000000 0.000000 0.000000 5.441290 4.191750 -4.237540 5.636700 -13.433500 0.079129 -0.000000 0.000000 0.000000 -66.668701 17.788099 0.104678 -3.589740 -7.197620 -96.638496 0.000005 -0.000003 0.000000 8.793980 30.000000 -14.576000 -0.000000 0.000000 0.000000 -15.892200 -0.218993 0.000000 -26.186899 7.545320 0.000000 -33.847301 9.498920 0.000000 -22.395399 6.522320 0.000000 -29.814800 5.680840 0.000000 -38.445599 7.095330 0.000000 -25.523199 4.926280 0.000000 -33.425701 -3.153410 0.000000 -43.013599 -3.903920 0.000000 -28.639500 -2.744280 0.000000 -37.363098 -6.926210 0.000000 -48.235100 -8.503590 0.000000 -31.966400 -6.047040 0.000000 -0.000000 0.000000 0.000000 68.376404 27.441999 0.167859 2.839100 -6.934720 88.156799 -0.000003 0.000003 0.000000 -8.793980 30.000000 14.576000 -0.000000 0.000000 0.000000 16.510700 0.236249 0.000000 27.223900 7.819060 0.000000 35.200298 9.826490 0.000000 23.278500 6.763600 0.000000 30.986500 5.881320 0.000000 39.963902 7.328250 0.000000 26.523899 5.104950 0.000000 34.730400 -3.261220 0.000000 44.694801 -4.024840 0.000000 29.756599 -2.841600 0.000000 38.837700 -7.155980 0.000000 50.149601 -8.751760 0.000000 33.224201 -6.257110 0.000000 9.332700 -27.904200 -20.450600 -6.030420 48.044998 5.130580 1.401540 6.323370 -2.731460 0.000002 0.000003 0.055953 -7.481630 -26.673100 1.354480 5.018930 36.599201 -3.635370 6.368350 -12.928000 4.129380 -0.000000 0.000000 0.039565
0.027366 0.661836 -0.000402 -0.827126 3.573100 1.294200 -0.000000 -0.000000 0.000000 0.140435 1.995060 -4.027460 -0.000000 0.000000 0.039565 4.704620 4.546650 -3.669660 6.006550 -14.483200 0.137056 -0.000000 0.000000 0.039565 -67.665398 17.795099 0.285305 -3.797790 -7.249290 -98.921997 -0.000017 0.000010 0.000000 8.793980 30.000000 -14.576000 -0.000000 0.000000 0.000000 -15.898800 -0.219174 0.000000 -26.197901 7.548240 0.000000 -33.861698 9.502430 0.000000 -22.404800 6.524890 0.000000 -29.827299 5.682990 0.000000 -38.461700 7.097840 0.000000 -25.533800 4.928190 0.000000 -33.439602 -3.154570 0.000000 -43.031399 -3.905230 0.000000 -28.651400 -2.745320 0.000000 -37.378799 -6.928680 0.000000 -48.255501 -8.506280 0.000000 -31.979799 -6.049290 0.000000 -0.000000 0.000000 0.039565 68.076500 27.905701 1.683720 2.646680 -6.846440 85.900497 0.000003 -0.000003 0.000000 -8.793980 30.000000 14.576000 -0.000000 0.000000 0.000000 16.570200 0.237943 0.000000 27.323799 7.845280 0.000000 35.330601 9.857760 0.000000 23.363600 6.786740 0.000000 31.099300 5.900490 0.000000 40.110001 7.350410 0.000000 26.620300 5.122070 0.000000 34.855900 -3.271510 0.000000 44.856499 -4.036300 0.000000 29.864100 -2.850910 0.000000 38.979698 -7.177850 0.000000 50.333900 -8.775160 0.000000 33.345299 -6.277170 0.000000 6.949650 -27.361799 -22.527700 -6.225050 49.629799 5.389290 1.774670 2.769000 -1.879660 0.000002 0.000002 0.000000 -8.406750 -27.774900 3.872070 5.025870 36.705299 -3.646550 7.824360 -12.954300 4.445100 0.000000 0.000000 0.000000
0.042438 0.661765 0.000004 -0.111885 3.838740 -0.314035 -0.000000 -0.000000 0.039565 0.118088 1.996510 -3.385160 0.000000 -0.000000 0.000000 3.928180 5.588040 -3.077250 6.281410 -15.959400 0.230700 0.000000 -0.000000 0.000000 -68.781601 18.264601 0.362616 -3.905500 -7.272610 -100.096001 -0.000007 -0.000007 0.000000 8.793980 30.000000 -14.576000 -0.000000 0.000000 0.000000 -15.914900 -0.219615 0.000000 -26.224800 7.555390 0.000000 -33.896801 9.511010 0.000000 -22.427700 6.531190 0.000000 -29.857800 5.688230 0.000000 -38.501202 7.103960 0.000000 -25.559900 4.932850 0.000000 -33.473499 -3.157400 0.000000 -43.075199 -3.908410 0.000000 -28.680500 -2.747860 0.000000 -37.417099 -6.934720 0.000000 -48.305199 -8.512850 0.000000 -32.012501 -6.054790 0.000000 0.000000 -0.000000 0.000000 67.752899 28.384501 3.617240 2.380880 -6.708850 82.710899 -0.000002 -0.000003 0.000000 -8.793980 30.000000 14.576000 -0.000000 0.000000 0.000000 16.595200 0.238658 0.000000 27.365900 7.856310 0.000000 35.385502 9.870910 0.000000 23.399401 6.796470 0.000000 31.146799 5.908550 0.000000 40.171600 7.359720 0.000000 26.660801 5.129270 0.000000 34.908798 -3.275830 0.000000 44.924599 -4.041110 0.000000 29.909401 -2.854830 0.000000 39.039501 -7.187050 0.000000 50.411499 -8.784990 0.000000 33.396198 -6.285610 0.000000 5.516430 -24.863501 -23.676300 -6.055530 48.335098 5.208430 0.996483 -2.992670 -1.524660 -0.000002 -0.000002 0.000000 -9.867330 -27.492100 5.932990 4.914720 34.934799 -3.457690 9.415740 -12.099200 4.689370 -0.000006 -0.000002 0.000000
0.058702 0.665825 -0.000992 0.711501 3.578590 -1.350429 -0.000000 0.000000 0.000000 0.116101 1.996630 -3.328730 0.000000 0.000000 0.000000 3.121780 7.248510 -2.463560 6.421090 -17.538500 0.326259 0.000000 0.000000 0.000000 -69.857697 19.308399 0.399584 -3.868020 -7.264760 -99.688400 0.000002 -0.000003 0.000000 8.793980 30.000000 -14.576000 -0.000000 0.000000 0.000000 -15.958400 -0.220810 0.000000 -26.297800 7.574730 0.000000 -33.992001 9.534220 0.000000 -22.489901 6.548220 0.000000 -29.940201 5.702410 0.000000 -38.608002 7.120500 0.000000 -25.630301 4.945480 0.000000 -33.565399 -3.165040 0.000000 -43.193501 -3.917030 0.000000 -28.759100 -2.754750 0.000000 -37.520901 -6.951020 0.000000 -48.439899 -8.530590 0.000000 -32.101002 -6.069670 0.000000 0.000000 0.000000 0.000000 67.670403 28.799000 5.190210 2.117570 -6.553250 79.450996 -0.000000 0.000000 0.000000 -8.793980 30.000000 14.576000 -0.000000 0.000000 0.000000 16.602100 0.238856 0.000000 27.377501 7.859360 0.000000 35.400700 9.874540 0.000000 23.409300 6.799160 0.000000 31.160000 5.910780 0.000000 40.188599 7.362300 0.000000 26.672001 5.131260 0.000000 34.923401 -3.277030 0.000000 44.943501 -4.042440 0.000000 29.921900 -2.855910 0.000000 39.056000 -7.189590 0.000000 50.432999 -8.787700 0.000000 33.410301 -6.287940 0.000000 4.595220 -21.816401 -23.297400 -5.693200 44.927200 4.666440 0.314563 -7.200530 -1.503470 -0.000002 -0.000000 0.000000 -12.052600 -25.640400 6.629750 4.688740 30.770599 -3.041430 10.817000 -9.825500 4.648960 -0.000000 -0.000002 0.000000
